<?xml version="1.0" encoding="UTF-8"?>
<svg width="1200px" height="600px" viewBox="0 0 1200 600" version="1.1" xmlns="http://www.w3.org/2000/svg">
    <title>Hero Background</title>
    <defs>
        <linearGradient id="bgGradient" x1="0%" y1="0%" x2="100%" y2="100%">
            <stop offset="0%" stop-color="#121212" />
            <stop offset="100%" stop-color="#1E1E1E" />
        </linearGradient>
        <radialGradient id="glowGradient" cx="50%" cy="50%" r="50%" fx="50%" fy="50%">
            <stop offset="0%" stop-color="#00FF00" stop-opacity="0.3" />
            <stop offset="100%" stop-color="#00FF00" stop-opacity="0" />
        </radialGradient>
    </defs>
    <g stroke="none" stroke-width="1" fill="none" fill-rule="evenodd">
        <!-- Background -->
        <rect fill="url(#bgGradient)" x="0" y="0" width="1200" height="600"></rect>
        
        <!-- Matrix-like Digital Rain -->
        <g id="matrix-rain" fill="#00FF00" fill-opacity="0.3" font-family="'Courier New', monospace">
            <!-- Column 1 -->
            <text font-size="14" x="50" y="50">01001000</text>
            <text font-size="14" x="50" y="70">01000001</text>
            <text font-size="14" x="50" y="90">01000011</text>
            <text font-size="14" x="50" y="110">01001011</text>
            <text font-size="14" x="50" y="130">01000101</text>
            <text font-size="14" x="50" y="150">01010010</text>
            <text font-size="14" x="50" y="170">01010111</text>
            <text font-size="14" x="50" y="190">01001111</text>
            <text font-size="14" x="50" y="210">01010010</text>
            <text font-size="14" x="50" y="230">01001100</text>
            <text font-size="14" x="50" y="250">01000100</text>
            
            <!-- Column 2 -->
            <text font-size="14" x="150" y="80">01010011</text>
            <text font-size="14" x="150" y="100">01000101</text>
            <text font-size="14" x="150" y="120">01000011</text>
            <text font-size="14" x="150" y="140">01010101</text>
            <text font-size="14" x="150" y="160">01010010</text>
            <text font-size="14" x="150" y="180">01001001</text>
            <text font-size="14" x="150" y="200">01010100</text>
            <text font-size="14" x="150" y="220">01011001</text>
            
            <!-- Column 3 -->
            <text font-size="14" x="250" y="60">01010000</text>
            <text font-size="14" x="250" y="80">01010010</text>
            <text font-size="14" x="250" y="100">01001111</text>
            <text font-size="14" x="250" y="120">01010100</text>
            <text font-size="14" x="250" y="140">01000101</text>
            <text font-size="14" x="250" y="160">01000011</text>
            <text font-size="14" x="250" y="180">01010100</text>
            <text font-size="14" x="250" y="200">01001001</text>
            <text font-size="14" x="250" y="220">01001111</text>
            <text font-size="14" x="250" y="240">01001110</text>
            
            <!-- More columns -->
            <text font-size="14" x="350" y="100">01000101</text>
            <text font-size="14" x="350" y="120">01010100</text>
            <text font-size="14" x="350" y="140">01001000</text>
            <text font-size="14" x="350" y="160">01001001</text>
            <text font-size="14" x="350" y="180">01000011</text>
            <text font-size="14" x="350" y="200">01000001</text>
            <text font-size="14" x="350" y="220">01001100</text>
            
            <text font-size="14" x="450" y="80">01001000</text>
            <text font-size="14" x="450" y="100">01000001</text>
            <text font-size="14" x="450" y="120">01000011</text>
            <text font-size="14" x="450" y="140">01001011</text>
            <text font-size="14" x="450" y="160">01001001</text>
            <text font-size="14" x="450" y="180">01001110</text>
            <text font-size="14" x="450" y="200">01000111</text>
            
            <text font-size="14" x="550" y="120">01000011</text>
            <text font-size="14" x="550" y="140">01011001</text>
            <text font-size="14" x="550" y="160">01000010</text>
            <text font-size="14" x="550" y="180">01000101</text>
            <text font-size="14" x="550" y="200">01010010</text>
            
            <text font-size="14" x="650" y="100">01010011</text>
            <text font-size="14" x="650" y="120">01000101</text>
            <text font-size="14" x="650" y="140">01000011</text>
            <text font-size="14" x="650" y="160">01010101</text>
            <text font-size="14" x="650" y="180">01010010</text>
            <text font-size="14" x="650" y="200">01001001</text>
            <text font-size="14" x="650" y="220">01010100</text>
            <text font-size="14" x="650" y="240">01011001</text>
            
            <text font-size="14" x="750" y="80">01010000</text>
            <text font-size="14" x="750" y="100">01010010</text>
            <text font-size="14" x="750" y="120">01001111</text>
            <text font-size="14" x="750" y="140">01010100</text>
            <text font-size="14" x="750" y="160">01000101</text>
            <text font-size="14" x="750" y="180">01000011</text>
            <text font-size="14" x="750" y="200">01010100</text>
            
            <text font-size="14" x="850" y="100">01000101</text>
            <text font-size="14" x="850" y="120">01010100</text>
            <text font-size="14" x="850" y="140">01001000</text>
            <text font-size="14" x="850" y="160">01001001</text>
            <text font-size="14" x="850" y="180">01000011</text>
            <text font-size="14" x="850" y="200">01000001</text>
            <text font-size="14" x="850" y="220">01001100</text>
            
            <text font-size="14" x="950" y="80">01001000</text>
            <text font-size="14" x="950" y="100">01000001</text>
            <text font-size="14" x="950" y="120">01000011</text>
            <text font-size="14" x="950" y="140">01001011</text>
            <text font-size="14" x="950" y="160">01001001</text>
            <text font-size="14" x="950" y="180">01001110</text>
            <text font-size="14" x="950" y="200">01000111</text>
            
            <text font-size="14" x="1050" y="120">01000011</text>
            <text font-size="14" x="1050" y="140">01011001</text>
            <text font-size="14" x="1050" y="160">01000010</text>
            <text font-size="14" x="1050" y="180">01000101</text>
            <text font-size="14" x="1050" y="200">01010010</text>
        </g>
        
        <!-- Glow Effect -->
        <circle cx="600" cy="300" r="200" fill="url(#glowGradient)"></circle>
        
        <!-- Grid Lines -->
        <g stroke="#00FF00" stroke-opacity="0.1" stroke-width="1">
            <!-- Horizontal Lines -->
            <line x1="0" y1="50" x2="1200" y2="50"></line>
            <line x1="0" y1="100" x2="1200" y2="100"></line>
            <line x1="0" y1="150" x2="1200" y2="150"></line>
            <line x1="0" y1="200" x2="1200" y2="200"></line>
            <line x1="0" y1="250" x2="1200" y2="250"></line>
            <line x1="0" y1="300" x2="1200" y2="300"></line>
            <line x1="0" y1="350" x2="1200" y2="350"></line>
            <line x1="0" y1="400" x2="1200" y2="400"></line>
            <line x1="0" y1="450" x2="1200" y2="450"></line>
            <line x1="0" y1="500" x2="1200" y2="500"></line>
            <line x1="0" y1="550" x2="1200" y2="550"></line>
            
            <!-- Vertical Lines -->
            <line x1="50" y1="0" x2="50" y2="600"></line>
            <line x1="100" y1="0" x2="100" y2="600"></line>
            <line x1="150" y1="0" x2="150" y2="600"></line>
            <line x1="200" y1="0" x2="200" y2="600"></line>
            <line x1="250" y1="0" x2="250" y2="600"></line>
            <line x1="300" y1="0" x2="300" y2="600"></line>
            <line x1="350" y1="0" x2="350" y2="600"></line>
            <line x1="400" y1="0" x2="400" y2="600"></line>
            <line x1="450" y1="0" x2="450" y2="600"></line>
            <line x1="500" y1="0" x2="500" y2="600"></line>
            <line x1="550" y1="0" x2="550" y2="600"></line>
            <line x1="600" y1="0" x2="600" y2="600"></line>
            <line x1="650" y1="0" x2="650" y2="600"></line>
            <line x1="700" y1="0" x2="700" y2="600"></line>
            <line x1="750" y1="0" x2="750" y2="600"></line>
            <line x1="800" y1="0" x2="800" y2="600"></line>
            <line x1="850" y1="0" x2="850" y2="600"></line>
            <line x1="900" y1="0" x2="900" y2="600"></line>
            <line x1="950" y1="0" x2="950" y2="600"></line>
            <line x1="1000" y1="0" x2="1000" y2="600"></line>
            <line x1="1050" y1="0" x2="1050" y2="600"></line>
            <line x1="1100" y1="0" x2="1100" y2="600"></line>
            <line x1="1150" y1="0" x2="1150" y2="600"></line>
        </g>
    </g>
</svg>
