<?xml version="1.0" encoding="UTF-8"?>
<svg width="400px" height="400px" viewBox="0 0 400 400" version="1.1" xmlns="http://www.w3.org/2000/svg">
    <title>Pattern Background</title>
    <defs>
        <linearGradient id="bgGradient" x1="0%" y1="0%" x2="100%" y2="100%">
            <stop offset="0%" stop-color="#121212" />
            <stop offset="100%" stop-color="#1A1A1A" />
        </linearGradient>
    </defs>
    <g stroke="none" stroke-width="1" fill="none" fill-rule="evenodd">
        <!-- Background -->
        <rect fill="url(#bgGradient)" x="0" y="0" width="400" height="400"></rect>
        
        <!-- Pattern Elements -->
        <g fill="#222222">
            <!-- Row 1 -->
            <rect x="0" y="0" width="50" height="50"></rect>
            <rect x="100" y="0" width="50" height="50"></rect>
            <rect x="200" y="0" width="50" height="50"></rect>
            <rect x="300" y="0" width="50" height="50"></rect>
            
            <!-- Row 2 -->
            <rect x="50" y="50" width="50" height="50"></rect>
            <rect x="150" y="50" width="50" height="50"></rect>
            <rect x="250" y="50" width="50" height="50"></rect>
            <rect x="350" y="50" width="50" height="50"></rect>
            
            <!-- Row 3 -->
            <rect x="0" y="100" width="50" height="50"></rect>
            <rect x="100" y="100" width="50" height="50"></rect>
            <rect x="200" y="100" width="50" height="50"></rect>
            <rect x="300" y="100" width="50" height="50"></rect>
            
            <!-- Row 4 -->
            <rect x="50" y="150" width="50" height="50"></rect>
            <rect x="150" y="150" width="50" height="50"></rect>
            <rect x="250" y="150" width="50" height="50"></rect>
            <rect x="350" y="150" width="50" height="50"></rect>
            
            <!-- Row 5 -->
            <rect x="0" y="200" width="50" height="50"></rect>
            <rect x="100" y="200" width="50" height="50"></rect>
            <rect x="200" y="200" width="50" height="50"></rect>
            <rect x="300" y="200" width="50" height="50"></rect>
            
            <!-- Row 6 -->
            <rect x="50" y="250" width="50" height="50"></rect>
            <rect x="150" y="250" width="50" height="50"></rect>
            <rect x="250" y="250" width="50" height="50"></rect>
            <rect x="350" y="250" width="50" height="50"></rect>
            
            <!-- Row 7 -->
            <rect x="0" y="300" width="50" height="50"></rect>
            <rect x="100" y="300" width="50" height="50"></rect>
            <rect x="200" y="300" width="50" height="50"></rect>
            <rect x="300" y="300" width="50" height="50"></rect>
            
            <!-- Row 8 -->
            <rect x="50" y="350" width="50" height="50"></rect>
            <rect x="150" y="350" width="50" height="50"></rect>
            <rect x="250" y="350" width="50" height="50"></rect>
            <rect x="350" y="350" width="50" height="50"></rect>
        </g>
        
        <!-- Overlay Elements -->
        <g fill="#00FF00" fill-opacity="0.05">
            <circle cx="25" cy="25" r="10"></circle>
            <circle cx="125" cy="25" r="10"></circle>
            <circle cx="225" cy="25" r="10"></circle>
            <circle cx="325" cy="25" r="10"></circle>
            
            <circle cx="75" cy="75" r="10"></circle>
            <circle cx="175" cy="75" r="10"></circle>
            <circle cx="275" cy="75" r="10"></circle>
            <circle cx="375" cy="75" r="10"></circle>
            
            <circle cx="25" cy="125" r="10"></circle>
            <circle cx="125" cy="125" r="10"></circle>
            <circle cx="225" cy="125" r="10"></circle>
            <circle cx="325" cy="125" r="10"></circle>
            
            <circle cx="75" cy="175" r="10"></circle>
            <circle cx="175" cy="175" r="10"></circle>
            <circle cx="275" cy="175" r="10"></circle>
            <circle cx="375" cy="175" r="10"></circle>
            
            <circle cx="25" cy="225" r="10"></circle>
            <circle cx="125" cy="225" r="10"></circle>
            <circle cx="225" cy="225" r="10"></circle>
            <circle cx="325" cy="225" r="10"></circle>
            
            <circle cx="75" cy="275" r="10"></circle>
            <circle cx="175" cy="275" r="10"></circle>
            <circle cx="275" cy="275" r="10"></circle>
            <circle cx="375" cy="275" r="10"></circle>
            
            <circle cx="25" cy="325" r="10"></circle>
            <circle cx="125" cy="325" r="10"></circle>
            <circle cx="225" cy="325" r="10"></circle>
            <circle cx="325" cy="325" r="10"></circle>
            
            <circle cx="75" cy="375" r="10"></circle>
            <circle cx="175" cy="375" r="10"></circle>
            <circle cx="275" cy="375" r="10"></circle>
            <circle cx="375" cy="375" r="10"></circle>
        </g>
    </g>
</svg>
