<?xml version="1.0" encoding="UTF-8"?>
<svg width="400px" height="250px" viewBox="0 0 400 250" version="1.1" xmlns="http://www.w3.org/2000/svg">
    <title>Ethical Hacking</title>
    <g stroke="none" stroke-width="1" fill="none" fill-rule="evenodd">
        <rect fill="#1E1E1E" x="0" y="0" width="400" height="250"></rect>
        <g transform="translate(20, 20)">
            <!-- Title -->
            <text font-family="'Arial', sans-serif" font-size="24" font-weight="bold" fill="#33CC33" x="20" y="30">
                ETHICAL HACKING
            </text>
            
            <!-- Subtitle -->
            <text font-family="'Arial', sans-serif" font-size="14" fill="#CCCCCC" x="20" y="55">
                Best practices for responsible security testing
            </text>
            
            <!-- Divider -->
            <line x1="20" y1="70" x2="360" y2="70" stroke="#33CC33" stroke-width="2"></line>
            
            <!-- White Hat -->
            <path d="M150,90 C120,90 100,100 100,120 L200,120 C200,100 180,90 150,90 Z" fill="#FFFFFF"></path>
            <ellipse cx="150" cy="120" rx="50" ry="10" fill="#FFFFFF"></ellipse>
            
            <!-- Computer with Shield -->
            <rect x="120" y="140" width="60" height="40" rx="5" fill="#333333"></rect>
            <rect x="110" y="180" width="80" height="10" rx="2" fill="#333333"></rect>
            <rect x="130" y="150" width="40" height="25" rx="2" fill="#111111"></rect>
            
            <!-- Shield -->
            <path d="M150,130 L170,130 L170,160 L150,170 L130,160 L130,130 Z" fill="#33CC33" fill-opacity="0.5" stroke="#33CC33" stroke-width="1"></path>
            <text font-family="'Arial', sans-serif" font-size="14" font-weight="bold" fill="#FFFFFF" x="143" y="155">
                ✓
            </text>
            
            <!-- Code Snippet -->
            <rect x="220" y="100" width="120" height="100" rx="5" fill="#111111"></rect>
            <text font-family="'Courier New', monospace" font-size="8" fill="#33CC33" x="230" y="120">
                <tspan x="230" dy="0">#!/bin/bash</tspan>
                <tspan x="230" dy="10"># Ethical scan</tspan>
                <tspan x="230" dy="10">echo "Starting scan..."</tspan>
                <tspan x="230" dy="10">nmap -sV --script</tspan>
                <tspan x="230" dy="10">  vuln $TARGET</tspan>
                <tspan x="230" dy="10">echo "Scan complete"</tspan>
                <tspan x="230" dy="10">echo "Generating report"</tspan>
                <tspan x="230" dy="10">echo "Done!"</tspan>
            </text>
            
            <!-- Author Info -->
            <text font-family="'Arial', sans-serif" font-size="12" fill="#CCCCCC" x="20" y="230">
                By: Ethical Hacker | 2023-11-05
            </text>
        </g>
    </g>
</svg>
