<?xml version="1.0" encoding="UTF-8"?>
<svg width="400px" height="300px" viewBox="0 0 400 300" version="1.1" xmlns="http://www.w3.org/2000/svg">
    <title>Encryption Master</title>
    <g stroke="none" stroke-width="1" fill="none" fill-rule="evenodd">
        <rect fill="#1E1E1E" x="0" y="0" width="400" height="300"></rect>
        <g transform="translate(50, 50)">
            <!-- Key Icon -->
            <path d="M50,100 C50,77.9 67.9,60 90,60 C112.1,60 130,77.9 130,100 C130,122.1 112.1,140 90,140 C67.9,140 50,122.1 50,100 Z" fill="#0088FF" fill-opacity="0.2"></path>
            <path d="M90,70 C73.4,70 60,83.4 60,100 C60,116.6 73.4,130 90,130 C106.6,130 120,116.6 120,100 C120,83.4 106.6,70 90,70 Z" fill="#0088FF" fill-opacity="0.5"></path>
            <path d="M130,100 L250,100 L250,110 L240,110 L240,120 L230,120 L230,110 L210,110 L210,120 L200,120 L200,110 L180,110 L180,120 L170,120 L170,110 L150,110 L150,100 Z" fill="#0088FF" fill-opacity="0.7"></path>
            
            <!-- Encryption Animation -->
            <text font-family="'Courier New', monospace" font-size="14" fill="#0088FF" x="40" y="170">
                <tspan x="40" dy="0">PLAIN TEXT: Hello World</tspan>
                <tspan x="40" dy="20">ENCRYPTED: H3ll0 W0r1d</tspan>
            </text>
            
            <!-- Binary Background -->
            <text font-family="'Courier New', monospace" font-size="10" fill="#0088FF" fill-opacity="0.2" x="10" y="20">
                01000101 01001110 01000011 01010010 01011001 01010000
            </text>
            <text font-family="'Courier New', monospace" font-size="10" fill="#0088FF" fill-opacity="0.2" x="10" y="40">
                01010100 01001001 01001111 01001110 00100000 01001101
            </text>
            <text font-family="'Courier New', monospace" font-size="10" fill="#0088FF" fill-opacity="0.2" x="10" y="60">
                01000001 01010011 01010100 01000101 01010010 00100000
            </text>
            
            <!-- Product Name -->
            <text font-family="'Courier New', monospace" font-size="18" font-weight="bold" fill="#0088FF" x="60" y="200">
                ENCRYPTION MASTER
            </text>
        </g>
    </g>
</svg>
